<svg width="20" height="20" viewBox="0 0 20 20" fill="none" xmlns="http://www.w3.org/2000/svg">
<path d="M9.89648 0C13.8496 1.32419e-10 15.8263 0.000381305 17.25 0.942383C17.8856 1.36301 18.43 1.90732 18.8506 2.54297C19.7926 3.96665 19.793 5.94332 19.793 9.89648C19.793 13.8496 19.7926 15.8263 18.8506 17.25C18.43 17.8856 17.8856 18.43 17.25 18.8506C15.8263 19.7926 13.8496 19.793 9.89648 19.793C5.94332 19.793 3.96665 19.7926 2.54297 18.8506C1.90732 18.43 1.36301 17.8856 0.942383 17.25C0.000381305 15.8263 1.32419e-10 13.8496 0 9.89648C0 5.94329 0.000370136 3.96665 0.942383 2.54297C1.36301 1.9073 1.9073 1.36301 2.54297 0.942383C3.96665 0.000370136 5.94329 0 9.89648 0ZM9.89551 4.77344C7.06598 4.77352 4.77248 7.06695 4.77246 9.89648C4.77246 12.726 7.06597 15.0195 9.89551 15.0195C12.7251 15.0195 15.0195 12.7261 15.0195 9.89648C15.0195 7.0669 12.7251 4.77344 9.89551 4.77344ZM9.89551 6.50684C11.7678 6.50684 13.2861 8.02423 13.2861 9.89648C13.2861 11.7688 11.7678 13.2861 9.89551 13.2861C8.0233 13.2861 6.50586 11.7687 6.50586 9.89648C6.50588 8.02428 8.02332 6.50692 9.89551 6.50684ZM15.2217 3.31152C14.557 3.31176 14.0186 3.85095 14.0186 4.51562C14.0186 5.18035 14.557 5.71949 15.2217 5.71973C15.8866 5.71973 16.4258 5.1805 16.4258 4.51562C16.4257 3.8508 15.8865 3.31152 15.2217 3.31152Z" fill="#C69B7B"/>
</svg>
