<svg width="126" height="34" viewBox="0 0 126 34" fill="none" xmlns="http://www.w3.org/2000/svg">
<mask id="path-1-inside-1_454_8747" fill="white">
<path d="M5.15315 17.3492C4.76263 16.9587 4.76263 16.3255 5.15315 15.935L6.12136 14.9668C8.4645 12.6237 12.2635 12.6237 14.6066 14.9668L15.5748 15.935C15.9654 16.3255 15.9654 16.9587 15.5748 17.3492L14.6066 18.3174C12.2635 20.6606 8.4645 20.6606 6.12136 18.3174L5.15315 17.3492Z"/>
</mask>
<path d="M5.15315 17.3492C4.76263 16.9587 4.76263 16.3255 5.15315 15.935L6.12136 14.9668C8.4645 12.6237 12.2635 12.6237 14.6066 14.9668L15.5748 15.935C15.9654 16.3255 15.9654 16.9587 15.5748 17.3492L14.6066 18.3174C12.2635 20.6606 8.4645 20.6606 6.12136 18.3174L5.15315 17.3492Z" stroke="#3A3845" stroke-width="4" mask="url(#path-1-inside-1_454_8747)"/>
<mask id="path-2-inside-2_454_8747" fill="white">
<path d="M19.0779 17.3492C18.6874 16.9587 18.6874 16.3255 19.0779 15.935L20.0461 14.9668C22.3893 12.6237 26.1883 12.6237 28.5314 14.9668L29.4996 15.935C29.8901 16.3255 29.8901 16.9587 29.4996 17.3492L28.5314 18.3174C26.1883 20.6606 22.3893 20.6606 20.0461 18.3174L19.0779 17.3492Z"/>
</mask>
<path d="M19.0779 17.3492C18.6874 16.9587 18.6874 16.3255 19.0779 15.935L20.0461 14.9668C22.3893 12.6237 26.1883 12.6237 28.5314 14.9668L29.4996 15.935C29.8901 16.3255 29.8901 16.9587 29.4996 17.3492L28.5314 18.3174C26.1883 20.6606 22.3893 20.6606 20.0461 18.3174L19.0779 17.3492Z" stroke="#3A3845" stroke-width="4" mask="url(#path-2-inside-2_454_8747)"/>
<mask id="path-3-inside-3_454_8747" fill="white">
<path d="M16.619 4.46896C17.0095 4.07843 17.6427 4.07843 18.0332 4.46896L19.0014 5.43716C21.3446 7.78031 21.3446 11.5793 19.0014 13.9224L18.0332 14.8906C17.6427 15.2812 17.0095 15.2812 16.619 14.8906L15.6508 13.9224C13.3076 11.5793 13.3076 7.78031 15.6508 5.43716L16.619 4.46896Z"/>
</mask>
<path d="M16.619 4.46896C17.0095 4.07843 17.6427 4.07843 18.0332 4.46896L19.0014 5.43716C21.3446 7.78031 21.3446 11.5793 19.0014 13.9224L18.0332 14.8906C17.6427 15.2812 17.0095 15.2812 16.619 14.8906L15.6508 13.9224C13.3076 11.5793 13.3076 7.78031 15.6508 5.43716L16.619 4.46896Z" stroke="#3A3845" stroke-width="4" mask="url(#path-3-inside-3_454_8747)"/>
<mask id="path-4-inside-4_454_8747" fill="white">
<path d="M16.5277 17.7018C16.9182 17.3113 17.5514 17.3113 17.9419 17.7018L18.9101 18.67C21.2533 21.0132 21.2533 24.8121 18.9101 27.1553L17.9419 28.1235C17.5514 28.514 16.9182 28.514 16.5277 28.1235L15.5595 27.1553C13.2164 24.8121 13.2164 21.0132 15.5595 18.67L16.5277 17.7018Z"/>
</mask>
<path d="M16.5277 17.7018C16.9182 17.3113 17.5514 17.3113 17.9419 17.7018L18.9101 18.67C21.2533 21.0132 21.2533 24.8121 18.9101 27.1553L17.9419 28.1235C17.5514 28.514 16.9182 28.514 16.5277 28.1235L15.5595 27.1553C13.2164 24.8121 13.2164 21.0132 15.5595 18.67L16.5277 17.7018Z" stroke="#3A3845" stroke-width="4" mask="url(#path-4-inside-4_454_8747)"/>
<path d="M20.5488 1.04199C21.4917 0.963705 22.2734 0.978791 22.9873 1.23242C23.4265 1.38849 23.7689 1.74933 24.2354 2.39063C24.6449 2.95379 25.2056 3.83474 26.0205 4.40918C26.9132 5.03834 28.1148 5.46513 28.9648 5.82617C29.9439 6.24205 30.4876 6.5768 30.7148 6.95606C31.0279 7.47887 31.1901 8.13661 31.3398 9.00977C31.481 9.83298 31.6137 10.875 31.9209 11.8897C32.1973 12.8024 32.7834 13.7637 33.1758 14.5039C33.6146 15.3316 33.8827 15.9893 33.8828 16.5859C33.8828 17.1484 33.6418 17.6565 33.2148 18.3301C32.8302 18.9369 32.2114 19.7794 31.9209 20.7383C31.6026 21.7894 31.5457 22.9932 31.4434 23.8887C31.3313 24.8685 31.1646 25.5945 30.7656 26.1406C30.37 26.6822 29.7268 27.0658 28.8311 27.4766C28.0155 27.8506 26.8983 28.2778 26.0205 28.8965C25.2185 29.4618 24.6603 30.293 24.25 30.8281C23.7912 31.4265 23.4457 31.7776 22.9873 31.9404C22.2734 32.1941 21.4917 32.2092 20.5488 32.1309C19.6741 32.0582 18.5231 31.8828 17.4414 31.8828C16.3595 31.8828 15.2078 32.0582 14.333 32.1309C13.3903 32.2091 12.6093 32.194 11.8955 31.9404C11.2464 31.7098 10.7184 31.2988 10.1367 30.7461C9.59673 30.2329 8.91687 29.4923 8.1543 28.916C7.40945 28.3531 6.48322 27.8862 5.7998 27.4883C5.05649 27.0555 4.49112 26.6525 4.11719 26.1406C3.68827 25.5535 3.4522 24.7794 3.25977 23.8076C3.08271 22.9135 2.92968 21.7348 2.62793 20.7383C2.35397 19.8338 1.85765 19.0149 1.5459 18.4082C1.20959 17.7537 1 17.2106 1 16.5859C1.00013 15.9893 1.26821 15.3316 1.70703 14.5039C2.09946 13.7637 2.68552 12.8024 2.96191 11.8897C3.27679 10.8498 3.33687 9.79052 3.4375 9.03028C3.54447 8.22234 3.70119 7.60171 4.11719 7.03223C4.47997 6.53563 5.02742 6.16705 5.77051 5.7666C6.45252 5.39908 7.39165 4.96595 8.1543 4.38965C8.93249 3.80158 9.61283 3.01937 10.1562 2.47363C10.7442 1.88314 11.2651 1.45638 11.8955 1.23242C12.6093 0.978831 13.3903 0.963746 14.333 1.04199C15.2078 1.11463 16.3595 1.29004 17.4414 1.29004C18.5231 1.29004 19.6741 1.11465 20.5488 1.04199Z" stroke="#3A3845" stroke-width="2"/>
<path d="M62.5136 7.70619C62.6156 7.70619 62.7135 7.75464 62.7859 7.84102C62.8584 7.92739 62.8995 8.0447 62.9004 8.1674V24.8548C62.9004 24.9775 62.8602 25.0953 62.7884 25.1824C62.7166 25.2696 62.6191 25.3191 62.5171 25.3202H60.6281C60.5261 25.3191 60.4286 25.2696 60.3568 25.1824C60.285 25.0953 60.2447 24.9775 60.2447 24.8548V13.9996C60.096 14.145 59.9426 14.2847 59.7846 14.4189C59.335 14.7962 58.8785 15.1149 58.4359 15.4252C57.9932 15.7354 57.7005 15.9786 57.352 16.226C56.6995 16.6794 56.1314 17.2892 55.6829 18.0177C55.2345 18.7461 54.9152 19.5777 54.745 20.4607C54.7259 20.5635 54.6781 20.6553 54.6097 20.7209C54.5412 20.7865 54.4561 20.822 54.3686 20.8213H52.5667C52.4792 20.822 52.3941 20.7865 52.3256 20.7209C52.2572 20.6553 52.2094 20.5635 52.1903 20.4607C52.0201 19.5766 51.7006 18.744 51.2515 18.0147C50.8024 17.2855 50.2334 16.6752 49.5799 16.2218C49.2314 15.9744 48.8828 15.7019 48.496 15.421C48.1091 15.1401 47.5968 14.7921 47.1472 14.4147C46.9892 14.2833 46.8358 14.1436 46.6871 13.9954V24.8548C46.6871 24.9775 46.6469 25.0953 46.5751 25.1824C46.5033 25.2696 46.4058 25.3191 46.3038 25.3202H44.4183C44.3163 25.3191 44.2188 25.2696 44.147 25.1824C44.0752 25.0953 44.0349 24.9775 44.0349 24.8548V8.1716C44.0349 8.04816 44.0756 7.92979 44.1482 7.84251C44.2207 7.75523 44.3191 7.70619 44.4217 7.70619H46.2863C46.3771 7.7077 46.4646 7.74759 46.5334 7.81888C46.6023 7.89017 46.648 7.98832 46.6627 8.09612C46.7673 8.90953 47.1646 10.8089 48.618 11.8697C49.0013 12.1422 49.3812 12.4483 49.7995 12.746C50.2177 13.0437 50.6255 13.3162 51.0228 13.6516C51.8341 14.3005 52.5601 15.092 53.1766 15.9996C53.2115 16.0528 53.256 16.0958 53.3067 16.1254C53.3574 16.155 53.4131 16.1703 53.4694 16.1703C53.5258 16.1703 53.5814 16.155 53.6321 16.1254C53.6828 16.0958 53.7273 16.0528 53.7622 15.9996C54.3773 15.0908 55.1022 14.2979 55.9126 13.6474C56.3273 13.312 56.7595 13.0101 57.1394 12.7418C57.5192 12.4734 57.9444 12.1422 58.3174 11.8697C59.7742 10.8256 60.1715 8.93469 60.2761 8.09612C60.2908 7.98832 60.3366 7.89017 60.4054 7.81888C60.4742 7.74759 60.5617 7.7077 60.6525 7.70619H62.5136Z" fill="#3A3845"/>
<path d="M82.6236 16.5133C82.6236 21.3655 78.7782 25.3203 74.0484 25.3203C69.3185 25.3203 65.4731 21.3697 65.4731 16.5133C65.4731 11.6568 69.3185 7.70624 74.0484 7.70624C78.7782 7.70624 82.6236 11.6568 82.6236 16.5133ZM74.0484 10.9061C70.8079 10.9061 68.1724 13.4224 68.1724 16.5133C68.1724 19.6041 70.8079 22.0994 74.0484 22.0994C77.2889 22.0994 79.9279 19.5831 79.9279 16.4965C79.9279 13.4098 77.2889 10.9061 74.0484 10.9061Z" fill="#3A3845"/>
<path d="M102.347 16.5133C102.347 21.3655 98.309 25.3203 93.3427 25.3203C88.3764 25.3203 84.3387 21.3697 84.3387 16.5133C84.3387 11.6568 88.3764 7.70624 93.3427 7.70624C98.309 7.70624 102.347 11.6568 102.347 16.5133ZM93.3427 10.9061C89.9402 10.9061 87.1692 13.4224 87.1692 16.5133C87.1692 19.6041 89.9402 22.0994 93.3427 22.0994C96.7452 22.0994 99.5125 19.5831 99.5125 16.4965C99.5125 13.4098 96.7341 10.9061 93.3427 10.9061Z" fill="#3A3845"/>
<path d="M117.692 16.3833V8.16756C117.692 8.10698 117.702 8.04699 117.721 7.99102C117.74 7.93505 117.769 7.8842 117.804 7.84136C117.84 7.79852 117.883 7.76454 117.929 7.74136C117.976 7.71817 118.026 7.70624 118.076 7.70624H119.97C120.021 7.70624 120.071 7.71817 120.117 7.74136C120.164 7.76454 120.206 7.79852 120.242 7.84136C120.278 7.8842 120.306 7.93505 120.325 7.99102C120.345 8.04699 120.355 8.10698 120.355 8.16756V24.859C120.355 24.9195 120.345 24.9795 120.325 25.0355C120.306 25.0915 120.278 25.1423 120.242 25.1852C120.206 25.228 120.164 25.262 120.117 25.2852C120.071 25.3083 120.021 25.3203 119.97 25.3203H118.094C118.043 25.3203 117.993 25.3083 117.947 25.2852C117.9 25.262 117.858 25.228 117.822 25.1852C117.786 25.1423 117.758 25.0915 117.739 25.0355C117.719 24.9795 117.709 24.9195 117.709 24.859V23.5463C117.711 23.1354 117.635 22.7294 117.486 22.3594C116.93 21.009 115.494 18.5095 112.139 16.9788C110.722 16.3502 109.394 15.4618 108.204 14.3451C108.148 14.2899 108.08 14.2552 108.008 14.2449C107.936 14.2347 107.863 14.2494 107.797 14.2873C107.732 14.3252 107.677 14.3847 107.639 14.4588C107.601 14.533 107.581 14.6186 107.582 14.7057V24.859C107.582 24.9813 107.542 25.0986 107.47 25.1852C107.397 25.2717 107.3 25.3203 107.198 25.3203H105.304C105.202 25.3203 105.104 25.2717 105.032 25.1852C104.96 25.0986 104.919 24.9813 104.919 24.859V8.16756C104.919 8.04521 104.96 7.92787 105.032 7.84136C105.104 7.75484 105.202 7.70624 105.304 7.70624H107.145C107.222 7.70807 107.296 7.73744 107.358 7.79054C107.421 7.84365 107.468 7.91802 107.495 8.004C107.799 8.99374 109.064 12.1978 113.065 13.9844C114.513 14.6199 115.859 15.549 117.045 16.7313C117.101 16.7892 117.169 16.8266 117.242 16.8392C117.315 16.8518 117.389 16.839 117.456 16.8023C117.523 16.7656 117.58 16.7067 117.62 16.6324C117.66 16.5581 117.681 16.4716 117.681 16.3833H117.692Z" fill="#3A3845"/>
<path d="M122.927 23.5589C122.927 23.2104 123.003 22.8696 123.144 22.5799C123.286 22.2901 123.487 22.0644 123.722 21.9312C123.957 21.798 124.216 21.7634 124.466 21.8317C124.715 21.9 124.944 22.0682 125.124 22.3149C125.304 22.5617 125.426 22.876 125.476 23.2179C125.525 23.5599 125.499 23.9142 125.401 24.236C125.303 24.5577 125.138 24.8325 124.926 25.0256C124.714 25.2186 124.465 25.3212 124.21 25.3203C124.042 25.3203 123.875 25.2747 123.719 25.1862C123.563 25.0976 123.421 24.9678 123.302 24.8042C123.183 24.6405 123.088 24.4463 123.024 24.2327C122.96 24.019 122.927 23.79 122.927 23.5589Z" fill="#3A3845"/>
</svg>
