<svg width="16" height="16" viewBox="0 0 16 16" fill="none" xmlns="http://www.w3.org/2000/svg">
<g clip-path="url(#clip0_1699_1338)">
<path d="M5.99967 14.6667C6.36786 14.6667 6.66634 14.3682 6.66634 14C6.66634 13.6318 6.36786 13.3333 5.99967 13.3333C5.63148 13.3333 5.33301 13.6318 5.33301 14C5.33301 14.3682 5.63148 14.6667 5.99967 14.6667Z" stroke="#262626" stroke-width="2" stroke-linecap="round" stroke-linejoin="round"/>
<path d="M13.3337 14.6667C13.7018 14.6667 14.0003 14.3682 14.0003 14C14.0003 13.6318 13.7018 13.3333 13.3337 13.3333C12.9655 13.3333 12.667 13.6318 12.667 14C12.667 14.3682 12.9655 14.6667 13.3337 14.6667Z" stroke="#262626" stroke-width="2" stroke-linecap="round" stroke-linejoin="round"/>
<path d="M0.666992 0.666668H3.33366L5.12033 9.59333C5.18129 9.90026 5.34826 10.176 5.59202 10.3722C5.83578 10.5684 6.14079 10.6727 6.45366 10.6667H12.9337C13.2465 10.6727 13.5515 10.5684 13.7953 10.3722C14.0391 10.176 14.206 9.90026 14.267 9.59333L15.3337 4H4.00033" stroke="#262626" stroke-width="2" stroke-linecap="round" stroke-linejoin="round"/>
</g>
<defs>
<clipPath id="clip0_1699_1338">
<rect width="16" height="16" fill="white"/>
</clipPath>
</defs>
</svg>
