<svg width="64" height="64" viewBox="0 0 64 64" fill="none" xmlns="http://www.w3.org/2000/svg"> 
 <g clip-path="url(#clip0_1535_3464)"> 
 <path d="M23.1 61H27.5C28.3 61 29 60.6 29.5 59.9L44.1 38.8H47.8H56.8C59 38.8 62.5 37 62.5 34.8C62.5 32.7 59.1 31 57 31H44.2L29.5 9.2C29 8.5 28.3 8 27.5 8H23.1L30 28.5C30.2 29.1 29.7 29.7 29 29.7H11.7C11.4 29.7 11.1 29.6 10.9 29.4L3.6 23C3.5 22.9 3.3 22.9 3.2 22.9L1.1 23.6C0.9 23.7 0.8 23.9 0.9 24.1L4.7 30.5L6.5 33.5V33.5L0.9 42.7C0.8 42.9 0.9 43.1 1.1 43.2L3.2 44C3.3 44 3.5 44 3.6 43.9L10.7 38.1C10.9 37.9 11.2 37.8 11.5 37.8H27H29C29.7 37.8 30.2 38.4 30 39L25 54.5" stroke="#737373" stroke-width="1.5" stroke-linecap="round" stroke-linejoin="round"/> 
 </g> 
 <defs> 
 <clipPath id="clip0_1535_3464"> 
 <rect width="64" height="64" fill="white"/> 
 </clipPath> 
 </defs> 
 </svg>